<?xml version="1.0" standalone="no"?>
<!DOCTYPE svg PUBLIC "-//W3C//DTD SVG 20010904//EN"
 "http://www.w3.org/TR/2001/REC-SVG-20010904/DTD/svg10.dtd">
<svg version="1.0" xmlns="http://www.w3.org/2000/svg"
 width="700.000000pt" height="700.000000pt" viewBox="0 0 700.000000 700.000000"
 preserveAspectRatio="xMidYMid meet">
<metadata>
Created by potrace 1.11, written by Peter Selinger 2001-2013
</metadata>
<g transform="translate(0.000000,700.000000) scale(0.100000,-0.100000)"
fill="#000000" stroke="none">
<path d="M3298 6995 c-1 -1 -41 -5 -88 -8 -102 -7 -205 -20 -320 -41 -144 -26
-129 -23 -315 -70 -110 -28 -318 -99 -402 -137 -24 -10 -45 -19 -47 -19 -8 0
-285 -136 -341 -167 -75 -42 -203 -122 -267 -168 -31 -22 -66 -47 -78 -55
-104 -70 -315 -255 -451 -395 -404 -416 -695 -917 -853 -1468 -37 -130 -92
-387 -102 -478 -3 -29 -7 -65 -10 -79 -25 -144 -24 -746 1 -823 2 -6 6 -37 9
-67 3 -30 8 -66 11 -80 3 -14 8 -45 11 -70 3 -24 7 -47 9 -51 2 -3 6 -19 9
-35 52 -289 207 -703 371 -994 105 -187 330 -502 440 -616 208 -217 269 -276
415 -395 94 -76 304 -229 315 -229 2 0 35 -20 72 -44 171 -109 522 -272 713
-331 217 -66 270 -79 459 -115 134 -26 204 -35 346 -47 171 -15 617 -7 710 12
11 2 40 6 65 9 317 35 712 155 1050 319 607 295 1120 763 1469 1342 70 116
211 394 226 445 4 14 11 30 15 35 8 10 26 58 85 233 78 230 140 536 163 797
13 158 5 651 -13 715 -2 8 -6 38 -9 65 -3 28 -8 61 -11 75 -5 26 -10 51 -20
110 -13 77 -47 220 -71 297 -13 46 -25 85 -25 88 0 10 -70 201 -84 232 -8 17
-15 36 -15 42 0 6 -4 19 -9 29 -6 9 -43 87 -85 172 -210 437 -511 824 -896
1150 -92 78 -145 120 -220 171 -36 24 -67 46 -70 50 -3 3 -53 35 -111 71 -148
92 -332 187 -524 269 -200 85 -542 181 -770 215 -27 4 -52 8 -55 9 -3 1 -41 5
-85 10 -44 4 -89 10 -100 12 -25 4 -512 12 -517 8z"/>
</g>
</svg>
